<svg width="36" height="35" viewBox="0 0 36 35" fill="none" xmlns="http://www.w3.org/2000/svg">
<path d="M17.5448 0.406738C7.88682 0.406738 0.0537109 8.08579 0.0537109 17.5539C0.0537109 27.0219 7.88682 34.701 17.5448 34.701C27.2029 34.701 35.036 27.0219 35.036 17.5539C35.036 8.08579 27.2072 0.406738 17.5448 0.406738ZM8.68267 18.1297L8.75701 18.014L13.3091 11.0351C13.3243 11.0122 13.3456 10.9937 13.3706 10.9815C13.3956 10.9694 13.4235 10.9641 13.4514 10.9661C13.4792 10.9681 13.506 10.9775 13.5289 10.9931C13.5518 11.0088 13.57 11.0302 13.5816 11.0551C14.3396 12.7255 14.9984 14.8032 14.6894 16.0964C14.5611 16.6279 14.2011 17.3481 13.7944 18.014C13.7423 18.1114 13.6854 18.2063 13.6239 18.2983C13.6092 18.3189 13.5895 18.3355 13.5666 18.3467C13.5437 18.3579 13.5183 18.3634 13.4927 18.3626H8.81822C8.79032 18.3631 8.76283 18.3561 8.73865 18.3424C8.71448 18.3287 8.69453 18.3089 8.68093 18.285C8.66733 18.2611 8.66058 18.2341 8.6614 18.2067C8.66222 18.1794 8.67057 18.1528 8.68558 18.1297H8.68267ZM28.9636 20.5303C28.964 20.5608 28.9552 20.5908 28.9384 20.6164C28.9215 20.6421 28.8974 20.6623 28.8689 20.6746C28.5147 20.8218 27.3093 21.3677 26.8078 22.0493C25.5281 23.7954 24.5515 26.2932 22.3651 26.2932H13.2493C12.4796 26.2921 11.7178 26.1423 11.0072 25.8524C10.2966 25.5624 9.65126 25.1381 9.10804 24.6036C8.56482 24.069 8.13438 23.4348 7.8413 22.7371C7.54822 22.0395 7.39826 21.292 7.39998 20.5375V20.4346C7.39998 20.3517 7.46995 20.2831 7.5574 20.2831H12.6371C12.7392 20.2831 12.812 20.3731 12.8047 20.4717C12.7668 20.7947 12.8295 21.1276 12.9869 21.4291C13.2872 22.0293 13.914 22.4036 14.5888 22.4036H17.1046V20.4789H14.6151C14.5859 20.4786 14.5574 20.4705 14.5325 20.4555C14.5077 20.4404 14.4875 20.419 14.4742 20.3936C14.4609 20.3682 14.4548 20.3397 14.4568 20.3111C14.4588 20.2826 14.4686 20.2551 14.4853 20.2317L14.5772 20.1031C14.8104 19.773 15.1471 19.2657 15.4823 18.6856C15.7097 18.2941 15.9313 17.8768 16.1091 17.4567C16.1441 17.3824 16.1718 17.3038 16.2039 17.2281C16.252 17.0938 16.3015 16.968 16.3365 16.8437C16.3708 16.7383 16.4024 16.632 16.4312 16.525C16.5143 16.1678 16.5493 15.7906 16.5493 15.4005C16.5493 15.2462 16.5435 15.0847 16.5289 14.9332C16.5216 14.766 16.4997 14.5974 16.4793 14.4302C16.463 14.2806 16.4397 14.1319 16.4094 13.9844C16.3701 13.7599 16.3225 13.5368 16.2665 13.3157L16.2461 13.2299C16.2024 13.0756 16.1645 12.9299 16.1149 12.777C15.9761 12.3074 15.8166 11.844 15.6368 11.388C15.5742 11.2165 15.5052 11.0473 15.4299 10.8808C15.3249 10.6264 15.2171 10.3964 15.1194 10.1806C15.0708 10.0882 15.0251 9.99429 14.9824 9.8991C14.935 9.79642 14.8849 9.69493 14.8323 9.59474C14.7973 9.51901 14.755 9.44613 14.7273 9.37754L14.4198 8.82312C14.3775 8.74739 14.4475 8.65451 14.532 8.6788L16.456 9.18893H16.4706L16.7228 9.26037L17.0026 9.33753L17.1046 9.36468V8.24583C17.1046 7.70427 17.5448 7.26559 18.0944 7.26559C18.2241 7.26525 18.3526 7.29064 18.4721 7.34025C18.5916 7.38985 18.6996 7.46264 18.7896 7.55423C18.9757 7.73825 19.0805 7.9867 19.0811 8.24583V9.90911L19.2867 9.96483C19.3012 9.97198 19.3187 9.97912 19.3319 9.98913C19.3814 10.0234 19.4543 10.0777 19.5461 10.1463C19.619 10.2006 19.6962 10.2692 19.7866 10.3421C20.0744 10.572 20.3535 10.8122 20.6233 11.0623C20.9352 11.3466 21.285 11.6795 21.6203 12.0496C21.715 12.1554 21.8054 12.2583 21.9001 12.3726C21.9905 12.4855 22.0925 12.5955 22.1771 12.7041C22.2922 12.8527 22.4103 13.007 22.5196 13.1671C22.5677 13.2428 22.6275 13.3214 22.6727 13.3971C22.8126 13.6 22.9321 13.8086 23.0473 14.0187C23.0968 14.1144 23.1449 14.2202 23.1872 14.3231C23.3169 14.6046 23.4189 14.8889 23.4816 15.1776C23.5024 15.2388 23.5165 15.302 23.5239 15.3662V15.3805C23.5443 15.4619 23.5516 15.5519 23.5589 15.6434C23.5999 16.0657 23.5472 16.4918 23.4044 16.8923C23.3592 17.0123 23.3169 17.1352 23.2615 17.2552C23.1522 17.4981 23.0268 17.7453 22.8767 17.9725C22.8272 18.0583 22.7674 18.1469 22.712 18.2326C22.6493 18.3226 22.5823 18.4084 22.5269 18.4898C22.4467 18.598 22.3626 18.7034 22.2747 18.8056C22.1975 18.9085 22.1202 19.0114 22.0328 19.1043C21.9147 19.2443 21.7996 19.3757 21.6757 19.5015C21.6057 19.5844 21.5299 19.6701 21.4483 19.7444C21.3725 19.8301 21.2909 19.9059 21.2209 19.9745C21.0985 20.0945 21.0023 20.1845 20.9177 20.2631L20.718 20.4374C20.6902 20.4648 20.6525 20.4802 20.6131 20.4803H19.0811V22.4036H21.0081C21.4381 22.4036 21.8477 22.255 22.18 21.9778C22.2922 21.8821 22.7849 21.4634 23.3694 20.8318C23.3884 20.8103 23.4139 20.7953 23.4423 20.789L28.7625 19.2786C28.7858 19.272 28.8104 19.2707 28.8344 19.275C28.8583 19.2793 28.8809 19.2889 28.9004 19.3032C28.9199 19.3174 28.9357 19.3359 28.9467 19.3572C28.9577 19.3785 28.9635 19.4019 28.9636 19.4258V20.5303Z" fill="black"/>
</svg>
